<svg width="25" height="25" viewBox="0 0 25 25" fill="none" xmlns="http://www.w3.org/2000/svg">
<path d="M18.0625 20.8334L14.375 17.1459L15.8437 15.6771L18.0521 17.8855L22.4687 13.4688L23.9583 14.9375L18.0625 20.8334ZM12.5 17.7084C12.5 13.6771 15.7604 10.4167 19.7917 10.4167C20.9167 10.4167 21.9687 10.6771 22.9167 11.125V4.16671C22.9167 3.02087 21.9792 2.08337 20.8333 2.08337H4.16667C3.02083 2.08337 2.08333 3.02087 2.08333 4.16671V22.9167L6.25 18.75H12.5C12.5 18.573 12.5104 18.4063 12.5312 18.2292C12.5104 18.0625 12.5 17.8855 12.5 17.7084Z" fill="#65FF81"/>
</svg>
