<svg width="26" height="26" viewBox="0 0 26 26" fill="none" xmlns="http://www.w3.org/2000/svg">
<path d="M13 0.5C6.1 0.5 0.5 6.1 0.5 13C0.5 19.9 6.1 25.5 13 25.5C19.9 25.5 25.5 19.9 25.5 13C25.5 6.1 19.9 0.5 13 0.5ZM13 21.125C11.9625 21.125 11.125 20.2875 11.125 19.25H14.875C14.875 20.2875 14.0375 21.125 13 21.125ZM19.25 18H6.75V16.75L8 15.5V12.2375C8 9.5875 9.2875 7.3375 11.75 6.75V6.125C11.75 5.4125 12.2875 4.875 13 4.875C13.7125 4.875 14.25 5.4125 14.25 6.125V6.75C16.7125 7.3375 18 9.6 18 12.2375V15.5L19.25 16.75V18Z" fill="#FA4E09"/>
</svg>
