<svg width="20" height="21" viewBox="0 0 20 21" fill="none" xmlns="http://www.w3.org/2000/svg">
    <path d="M2.51221 0.409668C1.14289 0.409668 0.012207 1.33076 0.012207 2.44866L0.00269692 16.7608C0.00135635 18.7783 1.95181 20.222 3.8809 19.6314L9.12179 18.0269C9.69415 17.8517 10.3058 17.8517 10.8782 18.0269L18.5916 20.3883C19.2919 20.6027 20 20.0789 20 19.3466V2.45065C20 1.33519 18.8663 0.409668 17.5 0.409668H2.51221ZM2.51031 5.44875C2.51136 3.79264 3.8542 2.45065 5.51031 2.45065H14.5C16.1569 2.45065 17.5 3.7938 17.5 5.45065V13.8177C17.5 15.8344 15.5501 17.2767 13.6218 16.6863L10.8784 15.8464C10.3059 15.6712 9.69411 15.6712 9.12167 15.8465L6.38348 16.6851C4.45437 17.2759 2.50373 15.8322 2.50501 13.8147L2.51031 5.44875Z" fill="#D9D9D9"/>
</svg>
