<svg width="18" height="18" viewBox="0 0 18 18" fill="none" xmlns="http://www.w3.org/2000/svg">
    <g clip-path="url(#clip0_337_441)">
        <path d="M6.75 2.25L5.3775 3.75H3C2.175 3.75 1.5 4.425 1.5 5.25V14.25C1.5 15.075 2.175 15.75 3 15.75H15C15.825 15.75 16.5 15.075 16.5 14.25V5.25C16.5 4.425 15.825 3.75 15 3.75H12.6225L11.25 2.25H6.75ZM9 13.5C6.93 13.5 5.25 11.82 5.25 9.75C5.25 7.68 6.93 6 9 6C11.07 6 12.75 7.68 12.75 9.75C12.75 11.82 11.07 13.5 9 13.5Z" fill="#6438C2"/>
        <path d="M9 12.75L9.9375 10.6875L12 9.75L9.9375 8.8125L9 6.75L8.0625 8.8125L6 9.75L8.0625 10.6875L9 12.75Z" fill="#6438C2"/>
    </g>
    <defs>
        <clipPath id="clip0_337_441">
            <rect width="18" height="18" fill="white"/>
        </clipPath>
    </defs>
</svg>
