<svg width="31" height="31" viewBox="0 0 31 31" fill="none" xmlns="http://www.w3.org/2000/svg">
    <path d="M12.6266 10.9869L14.4836 9.1299C16.5745 7.039 19.3119 6.17172 22.2089 6.02999C23.3357 5.97487 23.8991 5.9473 24.3509 6.3991C24.8027 6.85089 24.7751 7.41429 24.72 8.54112C24.5782 11.4381 23.711 14.1755 21.6201 16.2664L19.7631 18.1234C18.2339 19.6526 17.7991 20.0875 18.1201 21.7463C18.437 23.0134 18.7436 24.2404 17.8222 25.1618C16.7046 26.2794 15.6851 26.2794 14.5675 25.1618L5.58822 16.1825C4.47061 15.0649 4.47057 14.0454 5.58822 12.9277C6.50959 12.0064 7.73661 12.3131 9.00371 12.6299C10.6625 12.9509 11.0974 12.5161 12.6266 10.9869Z" stroke="white" stroke-width="1.5" stroke-linejoin="round"/>
    <path d="M19.1201 11.625H19.1314" stroke="white" stroke-width="2" stroke-linecap="round" stroke-linejoin="round"/>
    <path d="M1 29.75L7.25 23.5" stroke="white" stroke-width="1.5" stroke-linecap="round"/>
    <path d="M8.5 29.75L11 27.25" stroke="white" stroke-width="1.5" stroke-linecap="round"/>
    <path d="M1 22.25L3.5 19.75" stroke="white" stroke-width="1.5" stroke-linecap="round"/>
</svg>
