<svg width="25" height="25" viewBox="0 0 25 25" fill="none" xmlns="http://www.w3.org/2000/svg">
<path d="M8.82353 20C8.01471 20 7.32255 19.7554 6.74706 19.2663C6.17059 18.7763 5.88235 18.1875 5.88235 17.5V2.5C5.88235 1.8125 6.17059 1.22375 6.74706 0.73375C7.32255 0.244583 8.01471 0 8.82353 0H22.0588C22.8676 0 23.5603 0.244583 24.1368 0.73375C24.7123 1.22375 25 1.8125 25 2.5V17.5C25 18.1875 24.7123 18.7763 24.1368 19.2663C23.5603 19.7554 22.8676 20 22.0588 20H8.82353ZM2.94118 25C2.13235 25 1.43971 24.7554 0.863235 24.2663C0.287745 23.7763 0 23.1875 0 22.5V6.25C0 5.89583 0.141177 5.59875 0.42353 5.35875C0.704902 5.11958 1.05392 5 1.47059 5C1.88725 5 2.23676 5.11958 2.51912 5.35875C2.80049 5.59875 2.94118 5.89583 2.94118 6.25V22.5H17.6471C18.0637 22.5 18.4132 22.62 18.6956 22.86C18.977 23.0992 19.1176 23.3958 19.1176 23.75C19.1176 24.1042 18.977 24.4008 18.6956 24.64C18.4132 24.88 18.0637 25 17.6471 25H2.94118Z" fill="#65FF81"/>
</svg>
