<svg width="23" height="23" viewBox="0 0 23 23" fill="none" xmlns="http://www.w3.org/2000/svg">
<path d="M16.55 10.6361L18.5125 8.67356L13.825 3.98606L11.8625 5.94856L6.6875 0.78606C5.7125 -0.18894 4.125 -0.18894 3.15 0.78606L0.775 3.16106C-0.2 4.13606 -0.2 5.72356 0.775 6.69856L5.9375 11.8611L0 17.8111V22.4986H4.6875L10.6375 16.5486L15.8 21.7111C16.9875 22.8986 18.5875 22.4611 19.3375 21.7111L21.7125 19.3361C22.6875 18.3611 22.6875 16.7736 21.7125 15.7986L16.55 10.6361ZM7.725 10.0861L2.55 4.92356L4.9125 2.54856L6.5 4.13606L5.025 5.62356L6.7875 7.38606L8.275 5.89856L10.0875 7.71106L7.725 10.0861ZM17.575 19.9486L12.4125 14.7861L14.7875 12.4111L16.6 14.2236L15.1125 15.7111L16.875 17.4736L18.3625 15.9861L19.95 17.5736L17.575 19.9486Z" fill="#FA4E09"/>
<path d="M22.1375 5.04861C22.625 4.56111 22.625 3.77361 22.1375 3.28611L19.2125 0.361114C18.625 -0.226386 17.8125 -0.00138607 17.45 0.361114L15.1625 2.64861L19.85 7.33611L22.1375 5.04861Z" fill="#FA4E09"/>
</svg>
