<svg width="40" height="40" viewBox="0 0 40 40" fill="none" xmlns="http://www.w3.org/2000/svg">
<path d="M34.1667 17.5V16.6666C34.1667 10.3812 34.1667 7.23856 32.2142 5.28593C30.2615 3.33331 27.1188 3.33331 20.8333 3.33331H19.1668C12.8815 3.33331 9.73888 3.33331 7.78626 5.28591C5.83365 7.23851 5.83361 10.3812 5.83356 16.6665L5.8335 24.1666C5.83345 29.6456 5.83343 32.3853 7.34663 34.2291C7.6237 34.5668 7.93326 34.8763 8.27086 35.1535C10.1148 36.6666 12.8543 36.6666 18.3333 36.6666" stroke="#8E8E8E" stroke-width="2.5" stroke-linecap="round" stroke-linejoin="round"/>
<path d="M12.5 11.6667H27.5" stroke="#8E8E8E" stroke-width="2.5" stroke-linecap="round" stroke-linejoin="round"/>
<path d="M12.5 20H22.5" stroke="#8E8E8E" stroke-width="2.5" stroke-linecap="round" stroke-linejoin="round"/>
<path d="M34.1665 33.3333V28.3333C34.1665 25.951 31.928 23.3333 29.1665 23.3333C26.405 23.3333 24.1665 25.951 24.1665 28.3333V34.1666C24.1665 35.5473 25.2858 36.6666 26.6665 36.6666C28.0472 36.6666 29.1665 35.5473 29.1665 34.1666V28.3333" stroke="#8E8E8E" stroke-width="2.5" stroke-linecap="round" stroke-linejoin="round"/>
</svg>
