<svg width="22" height="14" viewBox="0 0 22 14" fill="none" xmlns="http://www.w3.org/2000/svg">
<path d="M10.75 11H11.475V10.2C11.9417 10.1333 12.3377 9.94167 12.663 9.625C12.9877 9.30833 13.15 8.9 13.15 8.4C13.15 7.96667 12.9833 7.604 12.65 7.312C12.3167 7.02067 11.9333 6.78333 11.5 6.6V4.75C11.6667 4.8 11.8043 4.88333 11.913 5C12.021 5.11667 12.1 5.25833 12.15 5.425L13.05 5.05C12.9333 4.7 12.7333 4.42067 12.45 4.212C12.1667 4.004 11.85 3.86667 11.5 3.8V3H10.75V3.775C10.2833 3.825 9.88733 3.99567 9.562 4.287C9.23733 4.579 9.075 4.96667 9.075 5.45C9.075 5.9 9.246 6.275 9.588 6.575C9.92933 6.875 10.3167 7.11667 10.75 7.3V9.275C10.4833 9.19167 10.2583 9.05 10.075 8.85C9.89167 8.65 9.76667 8.41667 9.7 8.15L8.825 8.525C8.95833 8.99167 9.19167 9.375 9.525 9.675C9.85833 9.975 10.2667 10.1583 10.75 10.225V11ZM11.5 9.25V7.6C11.6833 7.68333 11.846 7.78333 11.988 7.9C12.1293 8.01667 12.2 8.19167 12.2 8.425C12.2 8.69167 12.1333 8.879 12 8.987C11.8667 9.09567 11.7 9.18333 11.5 9.25ZM10.75 6.275C10.5667 6.19167 10.4 6.09167 10.25 5.975C10.1 5.85833 10.025 5.68333 10.025 5.45C10.025 5.21667 10.1 5.046 10.25 4.938C10.4 4.82933 10.5667 4.75833 10.75 4.725V6.275ZM7 14C5.05 14 3.396 13.3207 2.038 11.962C0.679333 10.604 0 8.95 0 7C0 5.05 0.679333 3.39567 2.038 2.037C3.396 0.679 5.05 0 7 0H15C16.95 0 18.604 0.679 19.962 2.037C21.3207 3.39567 22 5.05 22 7C22 8.95 21.3207 10.604 19.962 11.962C18.604 13.3207 16.95 14 15 14H7Z" fill="#FFD900"/>
</svg>
