<svg width="41" height="41" viewBox="0 0 41 41" fill="none" xmlns="http://www.w3.org/2000/svg">
    <rect width="41" height="41" rx="10" fill="#6438C2"/>
    <path d="M19.7901 20.0395L24.1552 17.2506L27.4664 22.4331C27.1315 23.2958 26.6737 24.059 26.0931 24.7227C25.518 25.3828 24.8428 25.9605 24.0676 26.4559C23.0563 27.1019 22.0345 27.5333 21.002 27.7499C19.9716 27.9573 18.9838 27.9714 18.0386 27.7921C17.0897 27.6072 16.2111 27.235 15.4028 26.6755C14.5908 26.1105 13.8977 25.3785 13.3234 24.4796C12.7383 23.5639 12.3534 22.6271 12.1686 21.6692C11.9803 20.7058 11.9893 19.7665 12.1957 18.8514C12.4078 17.9327 12.814 17.064 13.4143 16.2453C14.0203 15.4231 14.8177 14.6961 15.8064 14.0643C16.3176 13.7377 16.8249 13.473 17.3282 13.2701C17.8314 13.0672 18.3179 12.9186 18.7877 12.8241C19.263 12.7261 19.7226 12.6777 20.1664 12.679C20.6102 12.6802 21.0311 12.7199 21.4291 12.7979L21.4054 14.5811C21.4018 14.8603 21.3105 15.0888 21.1313 15.2665C20.9578 15.4407 20.7064 15.5301 20.3771 15.5348C20.0663 15.5435 19.7792 15.5648 19.5159 15.5985C19.2547 15.623 19.0004 15.6707 18.7531 15.7417C18.5057 15.8127 18.2579 15.9078 18.0096 16.0269C17.7613 16.1459 17.4939 16.297 17.2074 16.48C16.6737 16.821 16.2544 17.2234 15.9495 17.6872C15.641 18.1454 15.4445 18.6428 15.3601 19.1793C15.2813 19.7122 15.3148 20.2723 15.4605 20.8595C15.6027 21.4411 15.8622 22.0269 16.2391 22.6168C16.6555 23.2684 17.115 23.7897 17.6179 24.1804C18.1207 24.5712 18.6463 24.8366 19.1947 24.9767C19.7486 25.1133 20.3124 25.1289 20.8859 25.0235C21.4614 24.909 22.0273 24.674 22.5835 24.3187C22.9261 24.0997 23.2136 23.8686 23.4458 23.6253C23.6836 23.3785 23.8987 23.1145 24.0909 22.8334L22.9011 20.9711L21.6876 21.7464C21.5078 21.8612 21.3369 21.9032 21.1747 21.8723C21.0126 21.8414 20.8848 21.7529 20.7915 21.6069L19.7901 20.0395Z" fill="white"/>
    <circle cx="32" cy="10" r="4" fill="#FA4E09"/>
    </svg>
    