<svg width="100" height="35" viewBox="0 0 100 35" fill="none" xmlns="http://www.w3.org/2000/svg">
    <path d="M49.864 18.088H53.848V22.88C53.256 23.312 52.624 23.6293 51.952 23.832C51.2853 24.0293 50.5787 24.128 49.832 24.128C48.8773 24.128 48.0133 23.9813 47.24 23.688C46.4667 23.3893 45.8053 22.976 45.256 22.448C44.7067 21.92 44.2827 21.2933 43.984 20.568C43.6853 19.8427 43.536 19.0507 43.536 18.192C43.536 17.3227 43.6773 16.5253 43.96 15.8C44.248 15.0747 44.656 14.4507 45.184 13.928C45.712 13.4053 46.3493 12.9973 47.096 12.704C47.848 12.4107 48.688 12.264 49.616 12.264C50.096 12.264 50.544 12.304 50.96 12.384C51.376 12.4587 51.76 12.5653 52.112 12.704C52.464 12.8373 52.7867 12.9973 53.08 13.184C53.3733 13.3707 53.64 13.576 53.88 13.8L53.184 14.872C53.0773 15.0427 52.9387 15.1467 52.768 15.184C52.5973 15.2213 52.4107 15.1787 52.208 15.056C52.016 14.9387 51.8267 14.8347 51.64 14.744C51.4587 14.648 51.264 14.5653 51.056 14.496C50.848 14.4267 50.6213 14.3733 50.376 14.336C50.1307 14.2987 49.848 14.28 49.528 14.28C48.9893 14.28 48.5013 14.3733 48.064 14.56C47.6267 14.7467 47.2533 15.0107 46.944 15.352C46.64 15.6933 46.4053 16.104 46.24 16.584C46.0747 17.064 45.992 17.6 45.992 18.192C45.992 18.832 46.0827 19.4053 46.264 19.912C46.4453 20.4133 46.7013 20.8373 47.032 21.184C47.3627 21.5307 47.7573 21.7947 48.216 21.976C48.68 22.1573 49.1947 22.248 49.76 22.248C50.144 22.248 50.4853 22.2107 50.784 22.136C51.088 22.056 51.384 21.9493 51.672 21.816V19.864H50.36C50.2053 19.864 50.0827 19.824 49.992 19.744C49.9067 19.6587 49.864 19.552 49.864 19.424V18.088ZM57.7621 15.752V24H55.5541V15.752H57.7621ZM58.0261 13.408C58.0261 13.5947 57.9888 13.768 57.9141 13.928C57.8395 14.088 57.7381 14.2293 57.6101 14.352C57.4875 14.4747 57.3408 14.5707 57.1701 14.64C57.0048 14.7093 56.8261 14.744 56.6341 14.744C56.4528 14.744 56.2795 14.7093 56.1141 14.64C55.9541 14.5707 55.8128 14.4747 55.6901 14.352C55.5675 14.2293 55.4688 14.088 55.3941 13.928C55.3248 13.768 55.2901 13.5947 55.2901 13.408C55.2901 13.2213 55.3248 13.048 55.3941 12.888C55.4688 12.7227 55.5675 12.5787 55.6901 12.456C55.8128 12.3333 55.9541 12.2373 56.1141 12.168C56.2795 12.0987 56.4528 12.064 56.6341 12.064C56.8261 12.064 57.0048 12.0987 57.1701 12.168C57.3408 12.2373 57.4875 12.3333 57.6101 12.456C57.7381 12.5787 57.8395 12.7227 57.9141 12.888C57.9888 13.048 58.0261 13.2213 58.0261 13.408ZM62.7184 19.568C63.1717 19.568 63.505 19.4533 63.7184 19.224C63.937 18.9947 64.0464 18.6987 64.0464 18.336C64.0464 17.9573 63.937 17.6613 63.7184 17.448C63.505 17.2293 63.1717 17.12 62.7184 17.12C62.265 17.12 61.9317 17.2293 61.7184 17.448C61.505 17.6613 61.3984 17.9573 61.3984 18.336C61.3984 18.6933 61.505 18.9893 61.7184 19.224C61.937 19.4533 62.2704 19.568 62.7184 19.568ZM64.8064 24.336C64.8064 24.192 64.761 24.0747 64.6704 23.984C64.5797 23.8933 64.457 23.8213 64.3024 23.768C64.153 23.7147 63.9744 23.6773 63.7664 23.656C63.5584 23.6293 63.337 23.6107 63.1024 23.6C62.8677 23.584 62.625 23.5707 62.3744 23.56C62.1237 23.5493 61.8784 23.5307 61.6384 23.504C61.4517 23.616 61.297 23.7493 61.1744 23.904C61.057 24.0533 60.9984 24.224 60.9984 24.416C60.9984 24.5493 61.0277 24.672 61.0864 24.784C61.1504 24.896 61.2544 24.992 61.3984 25.072C61.5424 25.152 61.7317 25.2133 61.9664 25.256C62.201 25.304 62.4944 25.328 62.8464 25.328C63.209 25.328 63.5157 25.304 63.7664 25.256C64.017 25.208 64.2197 25.1387 64.3744 25.048C64.529 24.9627 64.6384 24.8587 64.7024 24.736C64.7717 24.6133 64.8064 24.48 64.8064 24.336ZM66.9984 16.024V16.832C66.9984 16.96 66.961 17.0613 66.8864 17.136C66.817 17.2107 66.6997 17.2667 66.5344 17.304L65.8624 17.44C65.953 17.7013 65.9984 17.9813 65.9984 18.28C65.9984 18.6907 65.913 19.0613 65.7424 19.392C65.577 19.7173 65.3477 19.9973 65.0544 20.232C64.761 20.4613 64.4144 20.64 64.0144 20.768C63.6144 20.8907 63.1824 20.952 62.7184 20.952C62.425 20.952 62.1504 20.928 61.8944 20.88C61.6704 21.0187 61.5584 21.1707 61.5584 21.336C61.5584 21.4907 61.633 21.6027 61.7824 21.672C61.937 21.7413 62.137 21.792 62.3824 21.824C62.633 21.8507 62.9157 21.8693 63.2304 21.88C63.5504 21.8853 63.873 21.9013 64.1984 21.928C64.529 21.9547 64.8517 22.0027 65.1664 22.072C65.4864 22.136 65.769 22.2453 66.0144 22.4C66.265 22.5493 66.465 22.7493 66.6144 23C66.769 23.2507 66.8464 23.5733 66.8464 23.968C66.8464 24.336 66.7557 24.6933 66.5744 25.04C66.393 25.3867 66.129 25.696 65.7824 25.968C65.441 26.24 65.0197 26.4587 64.5184 26.624C64.017 26.7893 63.4464 26.872 62.8064 26.872C62.1717 26.872 61.6197 26.8107 61.1504 26.688C60.6864 26.5707 60.2997 26.4107 59.9904 26.208C59.6864 26.0107 59.4597 25.7813 59.3104 25.52C59.161 25.2587 59.0864 24.9867 59.0864 24.704C59.0864 24.336 59.1984 24.024 59.4224 23.768C59.6464 23.512 59.9557 23.3067 60.3504 23.152C60.1424 23.0347 59.9744 22.8827 59.8464 22.696C59.7237 22.504 59.6624 22.256 59.6624 21.952C59.6624 21.7067 59.7504 21.448 59.9264 21.176C60.1077 20.904 60.385 20.6773 60.7584 20.496C60.337 20.272 60.0037 19.9733 59.7584 19.6C59.513 19.2213 59.3904 18.7813 59.3904 18.28C59.3904 17.8693 59.473 17.4987 59.6384 17.168C59.809 16.8373 60.0437 16.5573 60.3424 16.328C60.641 16.0933 60.993 15.9147 61.3984 15.792C61.8037 15.6693 62.2437 15.608 62.7184 15.608C63.4224 15.608 64.0437 15.7467 64.5824 16.024H66.9984ZM78.2538 12.392V24H75.8378V19H70.7258V24H68.3098V12.392H70.7258V17.32H75.8378V12.392H78.2538ZM87.4645 15.752V24H86.1045C85.8218 24 85.6405 23.872 85.5605 23.616L85.4165 23.04C85.2512 23.2 85.0805 23.3467 84.9045 23.48C84.7285 23.6133 84.5392 23.728 84.3365 23.824C84.1392 23.92 83.9232 23.9947 83.6885 24.048C83.4592 24.1013 83.2085 24.128 82.9365 24.128C82.4885 24.128 82.0885 24.0507 81.7365 23.896C81.3898 23.7413 81.0992 23.5253 80.8645 23.248C80.6298 22.9707 80.4512 22.64 80.3285 22.256C80.2058 21.872 80.1445 21.4507 80.1445 20.992V15.752H82.3525V20.992C82.3525 21.4507 82.4565 21.808 82.6645 22.064C82.8778 22.3147 83.1925 22.44 83.6085 22.44C83.9178 22.44 84.2085 22.3733 84.4805 22.24C84.7525 22.1013 85.0112 21.9147 85.2565 21.68V15.752H87.4645ZM91.495 21.824C91.703 22.064 91.927 22.232 92.167 22.328C92.4123 22.424 92.6657 22.472 92.927 22.472C93.199 22.472 93.4443 22.424 93.663 22.328C93.887 22.2267 94.079 22.0693 94.239 21.856C94.399 21.6373 94.5217 21.3547 94.607 21.008C94.6923 20.6613 94.735 20.2427 94.735 19.752C94.735 19.3147 94.7003 18.944 94.631 18.64C94.5617 18.3307 94.4577 18.0773 94.319 17.88C94.1857 17.6827 94.0203 17.5387 93.823 17.448C93.6257 17.3573 93.3963 17.312 93.135 17.312C92.7883 17.312 92.487 17.3893 92.231 17.544C91.9803 17.6933 91.735 17.9147 91.495 18.208V21.824ZM91.495 16.704C91.8203 16.3787 92.1803 16.1173 92.575 15.92C92.9697 15.7227 93.4123 15.624 93.903 15.624C94.3777 15.624 94.8043 15.72 95.183 15.912C95.567 16.0987 95.8923 16.368 96.159 16.72C96.431 17.072 96.639 17.4987 96.783 18C96.9323 18.496 97.007 19.0533 97.007 19.672C97.007 20.3387 96.9217 20.9467 96.751 21.496C96.5857 22.04 96.3483 22.5067 96.039 22.896C95.7297 23.2853 95.359 23.5867 94.927 23.8C94.5003 24.0133 94.023 24.12 93.495 24.12C93.239 24.12 93.0097 24.0933 92.807 24.04C92.6043 23.992 92.4177 23.9227 92.247 23.832C92.0763 23.7413 91.919 23.6347 91.775 23.512C91.631 23.384 91.495 23.2427 91.367 23.088L91.279 23.584C91.2417 23.7387 91.1803 23.848 91.095 23.912C91.0097 23.9707 90.895 24 90.751 24H89.287V12.072H91.495V16.704Z" fill="#FA4E09"/>
    <rect width="35" height="35" rx="10" fill="#6438C2"/>
    <path d="M16.0321 19.847L19.5242 17.6159L22.1731 21.7619C21.9052 22.4521 21.539 23.0626 21.0744 23.5936C20.6144 24.1217 20.0743 24.5838 19.454 24.9801C18.6451 25.497 17.8276 25.8421 17.0016 26.0153C16.1773 26.1813 15.387 26.1925 14.6308 26.0491C13.8718 25.9012 13.1689 25.6034 12.5222 25.1559C11.8726 24.7038 11.3181 24.1182 10.8587 23.3991C10.3907 22.6666 10.0827 21.9171 9.9349 21.1508C9.78421 20.38 9.79144 19.6286 9.9566 18.8965C10.1263 18.1616 10.4512 17.4666 10.9315 16.8117C11.4162 16.1539 12.0541 15.5723 12.8451 15.0669C13.2541 14.8056 13.6599 14.5938 14.0625 14.4315C14.4652 14.2692 14.8544 14.1503 15.2301 14.0747C15.6104 13.9963 15.9781 13.9576 16.3331 13.9586C16.6882 13.9596 17.0249 13.9913 17.3432 14.0537L17.3243 15.4803C17.3215 15.7037 17.2484 15.8864 17.1051 16.0286C16.9662 16.168 16.7651 16.2395 16.5017 16.2433C16.253 16.2503 16.0234 16.2672 15.8127 16.2942C15.6038 16.3138 15.4003 16.352 15.2024 16.4088C15.0046 16.4656 14.8063 16.5417 14.6077 16.6369C14.4091 16.7322 14.1951 16.853 13.9659 16.9995C13.539 17.2723 13.2035 17.5942 12.9596 17.9652C12.7128 18.3318 12.5556 18.7296 12.4881 19.1588C12.425 19.5852 12.4518 20.0333 12.5684 20.503C12.6822 20.9683 12.8898 21.4369 13.1913 21.9088C13.5244 22.4302 13.892 22.8472 14.2943 23.1598C14.6965 23.4724 15.117 23.6847 15.5557 23.7968C15.9989 23.9061 16.4499 23.9185 16.9087 23.8343C17.3691 23.7426 17.8218 23.5547 18.2668 23.2704C18.5409 23.0952 18.7709 22.9103 18.9566 22.7157C19.1469 22.5182 19.3189 22.307 19.4727 22.0822L18.5208 20.5923L17.5501 21.2125C17.4063 21.3044 17.2695 21.338 17.1398 21.3133C17.0101 21.2886 16.9079 21.2178 16.8332 21.1009L16.0321 19.847Z" fill="white"/>
    <circle cx="25" cy="9" r="4" fill="#FA4E09"/>
</svg>
