<svg width="40" height="40" viewBox="0 0 40 40" fill="none" xmlns="http://www.w3.org/2000/svg">
    <path d="M18.3438 35.0003H16.0088C10.0334 35.0003 7.04566 35.0003 5.18932 33.1088C3.33301 31.2171 3.33301 28.1726 3.33301 22.0836C3.33301 15.9947 3.33301 12.9502 5.18932 11.0586C7.04566 9.16699 10.0334 9.16699 16.0088 9.16699H22.3467C28.322 9.16699 31.3098 9.16699 33.1662 11.0586C34.5943 12.514 34.9237 14.6518 34.9997 18.3336" stroke="white" stroke-width="1.5" stroke-linecap="round"/>
    <path d="M33.3612 33.3723L36.6663 36.6668M35.088 29.211C35.088 25.965 32.4565 23.3335 29.2105 23.3335C25.9643 23.3335 23.333 25.965 23.333 29.211C23.333 32.4572 25.9643 35.0887 29.2105 35.0887C32.4565 35.0887 35.088 32.4572 35.088 29.211Z" stroke="white" stroke-width="1.5" stroke-linecap="round" stroke-linejoin="round"/>
    <path d="M26.6661 9.16683L26.5004 8.65173C25.6754 6.08498 25.2629 4.80161 24.2807 4.06755C23.2987 3.3335 21.9942 3.3335 19.3852 3.3335H18.9467C16.3377 3.3335 15.0333 3.3335 14.0512 4.06755C13.0691 4.80161 12.6566 6.08498 11.8316 8.65173L11.666 9.16683" stroke="white" stroke-width="1.5"/>
</svg>
