<svg width="16" height="17" viewBox="0 0 16 17" fill="none" xmlns="http://www.w3.org/2000/svg">
    <path d="M14.4 3.43745H12.9187C11.9695 3.43745 11.2 2.66795 11.2 1.71872C11.2 0.764832 10.488 0 9.6 0H6.4C5.512 0 4.8 0.764832 4.8 1.71872C4.8 2.66795 4.0305 3.43745 3.08128 3.43745H1.6C0.712 3.43745 0.00799999 4.20228 0.00799999 5.15617L0 14.6091C0 15.563 0.712 16.3279 1.6 16.3279H14.4C15.288 16.3279 16 15.563 16 14.6091V5.15617C16 4.20228 15.288 3.43745 14.4 3.43745ZM9.6 2.57808C9.6 3.0527 9.21525 3.43745 8.74064 3.43745H7.25936C6.78475 3.43745 6.4 3.0527 6.4 2.57808C6.4 2.10347 6.78475 1.71872 7.25936 1.71872H8.74064C9.21525 1.71872 9.6 2.10347 9.6 2.57808Z" fill="#CEA9FB"/>
</svg>
