<svg width="45" height="45" viewBox="0 0 45 45" fill="none" xmlns="http://www.w3.org/2000/svg">
    <rect x="0.5" y="0.5" width="44" height="44" rx="9.5" fill="white" stroke="#8E8E8E"/>
    <path d="M17.111 23.2551C17.2956 23.085 17.3879 23 17.5 23C17.6121 23 17.7044 23.085 17.889 23.2551L18.6017 23.9117C18.6878 23.991 18.7308 24.0307 18.7843 24.0503C18.8378 24.07 18.8963 24.0677 19.0133 24.0631L19.9762 24.0253C20.2241 24.0155 20.3481 24.0107 20.4331 24.0821C20.5181 24.1535 20.5346 24.2765 20.5677 24.5224L20.7004 25.5077C20.7157 25.6216 20.7234 25.6785 20.7511 25.7271C20.7789 25.7757 20.824 25.8112 20.9143 25.8823L21.6898 26.4928C21.8817 26.6439 21.9777 26.7194 21.9967 26.8274C22.0157 26.9354 21.9513 27.0391 21.8225 27.2467L21.2965 28.0943C21.2363 28.1913 21.2063 28.2398 21.1967 28.2946C21.1871 28.3493 21.199 28.4052 21.2228 28.5168L21.4315 29.4952C21.4827 29.7356 21.5084 29.8558 21.4533 29.9513C21.3983 30.0467 21.2814 30.0848 21.0477 30.1609L20.122 30.4624C20.0117 30.4983 19.9565 30.5163 19.9134 30.5528C19.8703 30.5894 19.8436 30.6409 19.7902 30.7439L19.338 31.6154C19.2227 31.8375 19.1651 31.9485 19.0601 31.9868C18.9551 32.0251 18.8395 31.9772 18.6084 31.8813L17.72 31.5128C17.6114 31.4678 17.5572 31.4453 17.5 31.4453C17.4428 31.4453 17.3886 31.4678 17.28 31.5128L16.3916 31.8813C16.1605 31.9772 16.0449 32.0251 15.9399 31.9868C15.8349 31.9485 15.7773 31.8375 15.662 31.6154L15.2098 30.7439C15.1564 30.6409 15.1297 30.5894 15.0866 30.5528C15.0435 30.5163 14.9883 30.4983 14.878 30.4624L13.9523 30.1609C13.7186 30.0848 13.6017 30.0467 13.5467 29.9513C13.4916 29.8558 13.5173 29.7356 13.5685 29.4952L13.7772 28.5168C13.801 28.4052 13.8129 28.3493 13.8033 28.2946C13.7937 28.2398 13.7637 28.1913 13.7035 28.0943L13.1775 27.2467C13.0487 27.0391 12.9843 26.9354 13.0033 26.8274C13.0223 26.7194 13.1182 26.6439 13.3102 26.4928L14.0857 25.8823C14.176 25.8112 14.2211 25.7757 14.2489 25.7271C14.2766 25.6785 14.2843 25.6216 14.2996 25.5077L14.4323 24.5224C14.4654 24.2765 14.4819 24.1535 14.5669 24.0821C14.6519 24.0107 14.7759 24.0155 15.0238 24.0253L15.9867 24.0631C16.1037 24.0677 16.1622 24.07 16.2157 24.0503C16.2692 24.0307 16.3122 23.991 16.3983 23.9117L17.111 23.2551Z" stroke="#141B34" stroke-width="1.5"/>
    <path d="M17.5 19H16.5M21.5 19H20.5M17.5 16H16.5M21.5 16H20.5" stroke="#141B34" stroke-width="1.5" stroke-linecap="round"/>
    <path d="M29.5 25H28.5M29.5 21H28.5" stroke="#141B34" stroke-width="1.5" stroke-linecap="round"/>
    <path d="M25 18V32H29C30.8856 32 31.8284 32 32.4142 31.4142C33 30.8284 33 29.8856 33 28V22C33 20.1144 33 19.1716 32.4142 18.5858C31.8284 18 30.8856 18 29 18H25ZM25 18C25 15.1716 25 13.7574 24.1213 12.8787C23.2426 12 21.8284 12 19 12C16.1716 12 14.7574 12 13.8787 12.8787C13 13.7574 13 15.1716 13 18V21" stroke="#141B34" stroke-width="1.5" stroke-linecap="round" stroke-linejoin="round"/>
</svg>
