<svg width="40" height="40" viewBox="0 0 40 40" fill="none" xmlns="http://www.w3.org/2000/svg">
    <path d="M28.6691 3.3335H11.3314C8.90179 3.3335 6.77016 4.97466 6.67279 7.33941C6.55027 10.3148 8.64286 12.2905 10.8407 14.1453C13.8811 16.7112 15.4014 17.9942 15.5608 19.6182C15.5858 19.8723 15.5858 20.128 15.5608 20.3822C15.4014 22.0062 13.8812 23.2892 10.8407 25.855C8.58232 27.7608 6.54396 29.5327 6.67279 32.6608C6.77016 35.0257 8.90179 36.6668 11.3314 36.6668H28.6691C31.0986 36.6668 33.2303 35.0257 33.3276 32.6608C33.4051 30.7782 32.7075 28.9035 31.2255 27.6002C30.5498 27.0058 29.8483 26.436 29.1598 25.855C26.1193 23.2892 24.5991 22.0062 24.4396 20.3822C24.4146 20.128 24.4146 19.8723 24.4396 19.6182C24.5991 17.9942 26.1193 16.7112 29.1598 14.1453C31.3945 12.2595 33.455 10.4303 33.3276 7.33941C33.2303 4.97466 31.0986 3.3335 28.6691 3.3335Z" stroke="white" stroke-width="1.5"/>
    <path d="M15 36.0633C15 35.3268 15 34.9585 15.146 34.6367C15.1692 34.5855 15.195 34.5355 15.2233 34.487C15.4017 34.1815 15.7035 33.9658 16.3072 33.5345C17.9842 32.3367 18.8225 31.7377 19.7753 31.674C19.925 31.664 20.075 31.664 20.2247 31.674C21.1775 31.7377 22.0158 32.3367 23.6928 33.5345C24.2965 33.9658 24.5983 34.1815 24.7767 34.487C24.805 34.5355 24.8308 34.5855 24.854 34.6367C25 34.9585 25 35.3268 25 36.0633V36.6665H15V36.0633Z" stroke="white" stroke-width="1.5" stroke-linecap="round"/>
</svg>
