<svg width="16" height="17" viewBox="0 0 16 17" fill="none" xmlns="http://www.w3.org/2000/svg">
    <path d="M8 8.16393C10.2091 8.16393 12 6.33638 12 4.08197C12 1.82756 10.2091 0 8 0C5.79086 0 4 1.82756 4 4.08197C4 6.33638 5.79086 8.16393 8 8.16393Z" fill="#F36863"/>
    <path d="M14.39 10.7765C12.71 9.89891 10.53 9.18457 8 9.18457C5.47 9.18457 3.29 9.89891 1.61 10.7765C0.61 11.297 0 12.3481 0 13.491C0 15.0579 1.27015 16.328 2.83697 16.328H13.163C14.7298 16.328 16 15.0579 16 13.491C16 12.3481 15.39 11.297 14.39 10.7765Z" fill="#F36863"/>
</svg>
