<svg width="8" height="13" viewBox="0 0 8 15" fill="none" xmlns="http://www.w3.org/2000/svg">
    <path d="M4.14743 7.77632C4.8524 6.67895 6.20741 6.03158 6.99478 5.06053C7.82793 4.04211 7.361 2.13947 4.99889 2.13947C3.45161 2.13947 2.69171 3.15 2.37127 3.98684L0 3.12632C0.650038 1.44474 2.41704 0 4.98973 0C7.14127 0 8.6153 0.844737 9.36605 1.90263C10.0069 2.81053 10.3823 4.50789 9.39351 5.77105C8.29486 7.16842 7.24198 7.59474 6.67434 8.49474C6.44545 8.85789 6.3539 9.09474 6.3539 10.2632H3.70797C3.69881 9.64737 3.58894 8.64474 4.14743 7.77632ZM6.82998 13.4211C6.82998 14.2895 6.00599 15 4.99889 15C3.99179 15 3.16779 14.2895 3.16779 13.4211C3.16779 12.5526 3.99179 11.8421 4.99889 11.8421C6.00599 11.8421 6.82998 12.5526 6.82998 13.4211Z" fill="#6E4AED"/>
</svg>
