<svg width="40" height="40" viewBox="0 0 40 40" fill="none" xmlns="http://www.w3.org/2000/svg">
    <path d="M19.6692 10.8157L22.1452 8.33971C24.933 5.55184 28.5828 4.39546 32.4455 4.20649C33.948 4.13299 34.6992 4.09624 35.3015 4.69864C35.904 5.30103 35.8672 6.05223 35.7937 7.55466C35.6047 11.4173 34.4483 15.0672 31.6605 17.855L29.1845 20.331C27.1455 22.37 26.5658 22.9498 26.9938 25.1615C27.4163 26.851 27.8252 28.487 26.5967 29.7155C25.1065 31.2057 23.7472 31.2057 22.257 29.7155L10.2846 17.7432C8.79447 16.253 8.79442 14.8937 10.2846 13.4035C11.5131 12.175 13.1491 12.5839 14.8386 13.0063C17.0503 13.4344 17.6302 12.8547 19.6692 10.8157Z" stroke="white" stroke-width="1.5" stroke-linejoin="round"/>
    <path d="M28.3262 11.6665H28.3412" stroke="white" stroke-width="2" stroke-linecap="round" stroke-linejoin="round"/>
    <path d="M4.16699 35.8333L12.5003 27.5" stroke="white" stroke-width="1.5" stroke-linecap="round"/>
    <path d="M14.167 35.8333L17.5003 32.5" stroke="white" stroke-width="1.5" stroke-linecap="round"/>
    <path d="M4.16699 25.8333L7.50033 22.5" stroke="white" stroke-width="1.5" stroke-linecap="round"/>
</svg>
