<svg width="40" height="40" viewBox="0 0 40 40" fill="none" xmlns="http://www.w3.org/2000/svg">
    <path d="M18.3335 13.3333H21.6668" stroke="#8E8E8E" stroke-width="1.5" stroke-linecap="round"/>
    <path d="M3.3335 18.3334C3.3335 12.8336 3.3335 10.0838 5.04205 8.37524C6.75058 6.66669 9.50045 6.66669 15.0002 6.66669H16.6668C22.1665 6.66669 24.9163 6.66669 26.625 8.37524C28.3335 10.0838 28.3335 12.8336 28.3335 18.3334V21.6667C28.3335 27.1664 28.3335 29.9162 26.625 31.6249C24.9163 33.3334 22.1665 33.3334 16.6668 33.3334H15.0002C9.50045 33.3334 6.75058 33.3334 5.04205 31.6249C3.3335 29.9162 3.3335 27.1664 3.3335 21.6667V18.3334Z" stroke="#8E8E8E" stroke-width="1.5"/>
    <path d="M28.3335 14.8431L28.5433 14.6699C32.0697 11.7604 33.8328 10.3056 35.2498 11.008C36.6668 11.7105 36.6668 14.0392 36.6668 18.6968V21.3032C36.6668 25.9608 36.6668 28.2895 35.2498 28.992C33.8328 29.6943 32.0697 28.2397 28.5433 25.33L28.3335 25.1568" stroke="#8E8E8E" stroke-width="1.5" stroke-linecap="round"/>
</svg>
